# xmcd CD database file
#
# Track frame offsets:
#	182
#	19015
#	35727
#	50487
#	67375
#	82692
#	98430
#	116177
#	133945
#	153755
#	171927
#	188435
#	208212
#	228410
#	248825
#	267232
#	284005
#	299632
#	312647
#	329292
#
# Disc length: 4616 seconds
#
# Revision: 6
# Processed by: cddbd v1.5.2PL0 Copyright (c) Steve Scherf et al.
# Submitted via: CDex 1.70beta2
#
DISCID=30120614
DTITLE=Various Artist - Spirit Of Blues [CD2)
DYEAR=1998
DGENRE=Blues
TTITLE0=Johnny Winter - It's My Life Baby
TTITLE1=Albert Collins - The Moon Is Full
TTITLE2=Luther Allison With Maria Glen - Just As I Am
TTITLE3=Peter Green and Paul Rogers - Sweet Home Chicago
TTITLE4=Professor Longhair - In The Wee Wee Hours
TTITLE5=Lonnie Brooks - I Need A Friend
TTITLE6=Lonnie Marc and Stevie Ray Vaughan - Hound Dog Man
TTITLE7=Koko Taylor - Fish In Dirty Water
TTITLE8=Shemekia Copeland - Turn The Heat Up
TTITLE9=Kenny Neal - I'm A Blues Man
TTITLE10=Coco Robicheaux - Tumblin' Out
TTITLE11=Lucky Peterson - Under My Thumb
TTITLE12=Popa Chubby - Long Way Home
TTITLE13=Jean-Jacques Milteau - I've Got To Go
TTITLE14=Benoît Blue Boy - On Ne Peut Plus En Trouver
TTITLE15=Jean-Yves D'Angelo - Phone Blues
TTITLE16=Bernard Allison - Walkin'
TTITLE17=Kim-Lembo - In The Dark
TTITLE18=Bob Brozman - Honeymoon Blues
TTITLE19=Ray Bonneville - Nothing To Loose
EXTD=Spirit Of Blues YEAR: 1998
EXTT0=
EXTT1=
EXTT2=
EXTT3=
EXTT4=
EXTT5=
EXTT6=
EXTT7=
EXTT8=
EXTT9=
EXTT10=
EXTT11=
EXTT12=
EXTT13=
EXTT14=
EXTT15=
EXTT16=
EXTT17=
EXTT18=
EXTT19=
PLAYORDER=
